<svg width="122" height="37" viewBox="0 0 122 37" fill="none" xmlns="http://www.w3.org/2000/svg">
<path id="Vector 3" d="M1.33178 32.4891C0.629944 32.5083 0.0765142 33.0928 0.0956602 33.7946C0.114805 34.4964 0.699275 35.0499 1.40111 35.0307L1.33178 32.4891ZM43.3085 29.5865L43.4902 30.8447L43.3085 29.5865ZM67.8321 22.0839L68.5703 23.1188L67.8321 22.0839ZM74.2607 7.58464L73.0809 8.05794L74.2607 7.58464ZM61.7803 2.19989L61.6293 0.93764L61.6293 0.93764L61.7803 2.19989ZM48.8064 9.95045L49.9148 10.573L48.8064 9.95045ZM50.7387 22.0839L49.7105 22.8315L50.7387 22.0839ZM73.8807 33.5174L73.6434 34.7663L73.8807 33.5174ZM115.635 26.6257L114.969 25.5432L115.635 26.6257ZM121.02 23.7606L106.35 23.2521L113.245 36.2113L121.02 23.7606ZM1.40111 35.0307C15.4602 34.6472 29.658 32.842 43.4902 30.8447L43.1268 28.3283C29.3101 30.3233 15.2347 32.1099 1.33178 32.4891L1.40111 35.0307ZM43.4902 30.8447C51.8768 29.6338 61.1238 28.4299 68.5703 23.1188L67.0939 21.0489C60.2434 25.9348 51.6658 27.0954 43.1268 28.3283L43.4902 30.8447ZM68.5703 23.1188C70.5731 21.6904 72.7809 19.0856 74.2499 16.2297C75.6974 13.4156 76.6026 10.0081 75.4406 7.11135L73.0809 8.05794C73.8256 9.91448 73.3272 12.4652 71.989 15.0667C70.6723 17.6264 68.7124 19.8945 67.0939 21.0489L68.5703 23.1188ZM75.4406 7.11135C74.2731 4.20099 72.0513 2.48149 69.5123 1.59194C67.0092 0.71493 64.1817 0.632223 61.6293 0.93764L61.9314 3.46215C64.2494 3.18478 66.6555 3.28508 68.6716 3.99145C70.652 4.68528 72.2351 5.94955 73.0809 8.05794L75.4406 7.11135ZM61.6293 0.93764C58.3697 1.32768 55.7034 1.89609 53.431 3.16724C51.1235 4.45799 49.3404 6.40395 47.698 9.32786L49.9148 10.573C51.399 7.93068 52.8839 6.38654 54.6722 5.38618C56.4956 4.3662 58.753 3.84247 61.9314 3.46215L61.6293 0.93764ZM47.698 9.32786C47.216 10.186 47.0302 11.3083 46.9872 12.4112C46.9428 13.5484 47.0458 14.8176 47.2549 16.0745C47.6657 18.5433 48.5277 21.2049 49.7105 22.8315L51.7668 21.3362C50.9207 20.1727 50.1463 17.9609 49.763 15.6572C49.5751 14.5278 49.4917 13.436 49.5277 12.5103C49.5652 11.5504 49.7265 10.9082 49.9148 10.573L47.698 9.32786ZM49.7105 22.8315C52.3672 26.4848 56.5171 29.1026 60.8485 30.9778C65.1972 32.8604 69.8477 34.0452 73.6434 34.7663L74.118 32.2685C70.4315 31.5681 65.9773 30.4276 61.8586 28.6446C57.7228 26.854 54.0427 24.4659 51.7668 21.3362L49.7105 22.8315ZM73.6434 34.7663C88.2116 37.534 103.526 35.5723 116.301 27.7083L114.969 25.5432C102.816 33.024 88.1655 34.9372 74.118 32.2685L73.6434 34.7663Z" fill="white"/>
</svg>
