<?xml version="1.0" standalone="no"?>
<!DOCTYPE svg PUBLIC "-//W3C//DTD SVG 20010904//EN"
 "http://www.w3.org/TR/2001/REC-SVG-20010904/DTD/svg10.dtd">
<svg version="1.0" xmlns="http://www.w3.org/2000/svg"
 width="700.000000pt" height="700.000000pt" viewBox="0 0 700.000000 700.000000"
 preserveAspectRatio="xMidYMid meet">
<metadata>
Created by potrace 1.14, written by Peter Selinger 2001-2017
</metadata>
<g transform="translate(0.000000,700.000000) scale(0.100000,-0.100000)"
fill="#000000" stroke="none">
<path d="M3152 6354 c-35 -24 -37 -19 75 -284 54 -128 59 -141 86 -200 13 -30
43 -95 65 -145 22 -49 61 -135 87 -189 l46 -99 -16 -46 c-17 -46 -139 -283
-310 -606 -68 -129 -260 -498 -425 -820 -57 -110 -123 -238 -148 -285 -69
-130 -705 -1399 -809 -1615 -97 -200 -195 -406 -270 -565 -37 -80 -213 -475
-243 -547 -8 -20 -15 -21 -157 -22 -167 -2 -197 -11 -191 -59 5 -42 35 -50
173 -47 l124 3 -36 -66 c-20 -37 -39 -71 -43 -77 -15 -21 -17 -55 -5 -72 25
-33 61 1 119 112 l51 100 530 1 c631 2 2521 13 3030 19 521 5 897 7 900 3 1
-2 23 -43 49 -93 51 -101 63 -118 89 -128 56 -21 60 29 13 142 -19 45 -33 82
-33 82 1 1 58 2 127 4 257 4 280 9 280 60 0 49 -34 53 -325 44 l-130 -4 -40
80 c-22 44 -62 127 -89 185 -61 130 -152 322 -241 505 -37 77 -87 183 -112
235 -25 52 -86 178 -135 280 -87 178 -154 317 -278 575 -32 66 -108 224 -170
350 -62 127 -141 289 -175 360 -34 72 -114 236 -178 365 -220 451 -310 636
-387 795 -43 88 -143 294 -224 458 l-146 298 114 227 c62 125 137 279 166 342
28 63 58 129 66 145 19 42 45 114 54 153 11 44 -12 70 -44 49 -20 -12 -148
-256 -225 -427 -42 -93 -179 -369 -196 -392 -10 -15 -16 -7 -45 60 -19 42 -55
123 -82 180 -26 57 -48 105 -48 107 0 2 -27 61 -61 132 -33 70 -81 173 -107
228 -59 128 -74 142 -120 109z m483 -1407 c9 -44 72 -306 116 -482 23 -88 42
-164 43 -170 1 -5 8 -28 14 -50 6 -22 28 -98 47 -170 114 -412 245 -785 400
-1140 91 -207 246 -507 332 -643 18 -29 33 -55 33 -58 0 -2 8 -17 19 -32 10
-15 58 -88 106 -162 320 -491 596 -817 863 -1017 48 -36 88 -67 90 -68 4 -4
-832 -7 -2588 -10 -806 -1 -1516 -5 -1579 -9 l-114 -7 80 58 c119 86 174 133
324 283 150 150 216 224 337 380 45 58 86 110 92 117 28 34 225 332 282 428
227 380 447 842 599 1260 16 44 34 89 39 100 24 54 142 417 206 640 52 177
154 571 168 645 9 47 47 215 53 230 5 13 22 -43 38 -123z"/>
<path d="M3552 2363 c-50 -71 -112 -229 -112 -285 0 -35 -8 -35 -43 1 -35 37
-100 74 -188 106 -75 27 -99 25 -99 -9 1 -33 37 -189 54 -229 8 -21 12 -37 8
-37 -4 0 -36 7 -72 16 -67 16 -190 21 -210 9 -26 -16 43 -129 143 -232 58 -61
67 -73 48 -73 -36 0 -176 -50 -206 -74 l-28 -22 24 -24 c151 -145 425 -165
665 -48 l62 30 64 -30 c209 -99 453 -101 645 -7 101 50 106 63 39 102 -56 32
-165 72 -213 77 -15 2 -31 4 -35 5 -4 0 31 38 77 84 94 93 137 166 113 194
-11 13 -28 15 -108 10 -52 -4 -110 -11 -129 -17 -19 -5 -36 -8 -39 -6 -2 2 5
33 16 68 24 76 38 223 24 232 -28 17 -177 -62 -254 -135 -27 -25 -50 -43 -51
-40 -2 3 -4 22 -6 41 -4 50 -47 173 -77 223 -29 46 -73 97 -85 97 -4 0 -16
-12 -27 -27z"/>
</g>
</svg>
